<svg width="22" height="26" viewBox="0 0 22 26" fill="none" xmlns="http://www.w3.org/2000/svg">
<path d="M5.05 12.4847C5.05 12.8989 5.38579 13.2347 5.8 13.2347C6.21421 13.2347 6.55 12.8989 6.55 12.4847H5.05ZM16.25 12.4847C16.25 12.8989 16.5858 13.2347 17 13.2347C17.4142 13.2347 17.75 12.8989 17.75 12.4847H16.25ZM7.4 7.63303C6.98579 7.63303 6.65 7.96881 6.65 8.38303C6.65 8.79724 6.98579 9.13303 7.4 9.13303V7.63303ZM15 9.13303C15.4142 9.13303 15.75 8.79724 15.75 8.38303C15.75 7.96881 15.4142 7.63303 15 7.63303V9.13303ZM20.25 11.6644V21.7187H21.75V11.6644H20.25ZM17.8 24.25H4.2V25.75H17.8V24.25ZM1.75 21.7187V11.6644H0.25V21.7187H1.75ZM4.2 9.13303H5.8V7.63303H4.2V9.13303ZM17 9.13303H17.8V7.63303H17V9.13303ZM4.2 24.25C2.86454 24.25 1.75 23.1345 1.75 21.7187H0.25C0.25 23.9272 2.00084 25.75 4.2 25.75V24.25ZM20.25 21.7187C20.25 23.1345 19.1355 24.25 17.8 24.25V25.75C19.9992 25.75 21.75 23.9272 21.75 21.7187H20.25ZM21.75 11.6644C21.75 9.45578 19.9992 7.63303 17.8 7.63303V9.13303C19.1355 9.13303 20.25 10.2485 20.25 11.6644H21.75ZM1.75 11.6644C1.75 10.2485 2.86454 9.13303 4.2 9.13303V7.63303C2.00084 7.63303 0.25 9.45578 0.25 11.6644H1.75ZM6.55 6.74235C6.55 3.96729 8.73906 1.75 11.4 1.75V0.25C7.87536 0.25 5.05 3.17458 5.05 6.74235H6.55ZM6.55 12.4847V6.74235H5.05V12.4847H6.55ZM16.25 6.74235V12.4847H17.75V6.74235H16.25ZM11.4 1.75C14.0609 1.75 16.25 3.96729 16.25 6.74235H17.75C17.75 3.17458 14.9246 0.25 11.4 0.25V1.75ZM7.4 9.13303H15V7.63303H7.4V9.13303Z" fill="white"/>
</svg>
