<svg width="13" height="16" viewBox="0 0 13 16" fill="none" xmlns="http://www.w3.org/2000/svg">
<path d="M0.51153 15.0182C0.45257 15.288 0.623468 15.5545 0.893242 15.6135C1.16302 15.6724 1.42951 15.5015 1.48847 15.2318L0.51153 15.0182ZM11.613 15.2318C11.672 15.5015 11.9385 15.6724 12.2082 15.6135C12.478 15.5545 12.6489 15.288 12.59 15.0182L11.613 15.2318ZM9.78288 4.60714C9.78288 6.39221 8.3358 7.83929 6.55074 7.83929V8.83929C8.88809 8.83929 10.7829 6.94449 10.7829 4.60714H9.78288ZM6.55074 7.83929C4.76568 7.83929 3.3186 6.39221 3.3186 4.60714H2.3186C2.3186 6.94449 4.21339 8.83929 6.55074 8.83929V7.83929ZM3.3186 4.60714C3.3186 2.82208 4.76568 1.375 6.55074 1.375V0.375C4.21339 0.375 2.3186 2.26979 2.3186 4.60714H3.3186ZM6.55074 1.375C8.3358 1.375 9.78288 2.82208 9.78288 4.60714H10.7829C10.7829 2.26979 8.88809 0.375 6.55074 0.375V1.375ZM6.55074 10.1964C8.87264 10.1964 10.9582 12.2358 11.613 15.2318L12.59 15.0182C11.8753 11.7483 9.50916 9.19643 6.55074 9.19643V10.1964ZM1.48847 15.2318C2.14326 12.2358 4.22884 10.1964 6.55074 10.1964V9.19643C3.59232 9.19643 1.2262 11.7483 0.51153 15.0182L1.48847 15.2318Z" fill="#A82D2D"/>
</svg>
