<svg width="15" height="17" viewBox="0 0 15 17" fill="none" xmlns="http://www.w3.org/2000/svg">
<path d="M3.2 8.15647C3.2 8.43261 3.42386 8.65647 3.7 8.65647C3.97614 8.65647 4.2 8.43261 4.2 8.15647H3.2ZM10.6667 8.15647C10.6667 8.43261 10.8905 8.65647 11.1667 8.65647C11.4428 8.65647 11.6667 8.43261 11.6667 8.15647H10.6667ZM4.76667 4.92202C4.49052 4.92202 4.26667 5.14587 4.26667 5.42202C4.26667 5.69816 4.49052 5.92202 4.76667 5.92202V4.92202ZM9.83333 5.92202C10.1095 5.92202 10.3333 5.69816 10.3333 5.42202C10.3333 5.14587 10.1095 4.92202 9.83333 4.92202V5.92202ZM13.3333 7.60958V14.3124H14.3333V7.60958H13.3333ZM11.7 16H2.63333V17H11.7V16ZM1 14.3124V7.60958H0V14.3124H1ZM2.63333 5.92202H3.7V4.92202H2.63333V5.92202ZM11.1667 5.92202H11.7V4.92202H11.1667V5.92202ZM2.63333 16C1.74303 16 1 15.2564 1 14.3124H0C0 15.7848 1.16723 17 2.63333 17V16ZM13.3333 14.3124C13.3333 15.2564 12.5903 16 11.7 16V17C13.1661 17 14.3333 15.7848 14.3333 14.3124H13.3333ZM14.3333 7.60958C14.3333 6.13719 13.1661 4.92202 11.7 4.92202V5.92202C12.5903 5.92202 13.3333 6.66566 13.3333 7.60958H14.3333ZM1 7.60958C1 6.66566 1.74303 5.92202 2.63333 5.92202V4.92202C1.16723 4.92202 0 6.13719 0 7.60958H1ZM4.2 4.32824C4.2 2.4782 5.65937 1 7.43333 1V0C5.08357 0 3.2 1.94972 3.2 4.32824H4.2ZM4.2 8.15647V4.32824H3.2V8.15647H4.2ZM10.6667 4.32824V8.15647H11.6667V4.32824H10.6667ZM7.43333 1C9.2073 1 10.6667 2.4782 10.6667 4.32824H11.6667C11.6667 1.94972 9.7831 0 7.43333 0V1ZM4.76667 5.92202H9.83333V4.92202H4.76667V5.92202Z" fill="#A82D2D"/>
</svg>
