<svg width="145" height="40" viewBox="0 0 145 40" fill="none" xmlns="http://www.w3.org/2000/svg">
<path d="M18.5331 39.5929H18.0433L4.53661 6.16116C3.5743 3.80693 2.78383 2.4322 2.1652 2.03697C1.54657 1.62455 0.910758 1.41834 0.257762 1.41834V1.0317H9.02166V1.41834C8.24838 1.36679 7.86173 1.66751 7.86173 2.32051C7.86173 2.57827 7.91328 2.85321 8.01639 3.14534L19.7961 32.4013L31.4985 3.17112C31.6531 2.77589 31.7305 2.45798 31.7305 2.2174C31.7305 1.63314 31.2751 1.36679 30.3643 1.41834V1.0317H36.0609V1.41834C35.6656 1.41834 35.2446 1.47849 34.7978 1.59877C34.3682 1.70188 33.9214 2.14007 33.4575 2.91336C32.9935 3.68664 32.7529 4.09906 32.7357 4.15062L18.5331 39.5929ZM54.4393 21.5238H43.3555L37.6074 35.8811C37.2122 36.9121 37.0146 37.5479 37.0146 37.7885C37.0146 38.3556 37.4356 38.6391 38.2776 38.6391V39H32.6326V38.6391C33.3887 38.6391 34.0245 38.4587 34.5401 38.0978C35.0556 37.7198 35.6227 36.7575 36.2413 35.2109L50.0058 0.464623H50.6502L64.2084 34.0252C64.2084 34.197 64.5521 35.0133 65.2395 36.4739C65.944 37.9174 67.0095 38.6391 68.4357 38.6391V39H59.5687V38.6391C60.3764 38.6391 60.7802 38.3212 60.7802 37.6854C60.7802 37.2558 60.5826 36.5684 60.1874 35.6233C60.1186 35.5546 60.0585 35.4429 60.0069 35.2882C59.9726 35.1164 59.9468 35.0305 59.9296 35.0305L54.4393 21.5238ZM43.7164 20.4669H53.9753L48.8458 7.52729L43.7164 20.4669ZM89.7269 0.464623C95.0539 0.464623 99.4101 2.08852 102.795 5.33632C106.181 8.56693 107.873 12.6052 107.873 17.4511C107.873 23.689 105.914 28.9387 101.996 33.2004C98.0783 37.462 92.8801 39.5929 86.4017 39.5929C81.1434 39.5929 76.8388 37.8744 73.4879 34.4376C70.137 31.0008 68.4615 26.8766 68.4615 22.0651C68.4615 18.8173 69.2692 15.4835 70.8845 12.0639C72.4998 8.64426 74.9313 5.86043 78.1791 3.71242C81.4269 1.54722 85.2762 0.464623 89.7269 0.464623ZM89.5722 37.5823C92.1842 37.5823 94.7618 36.8864 97.305 35.4944C99.8483 34.0853 101.85 32.1521 103.311 29.6948C104.772 27.2375 105.502 24.7114 105.502 22.1166C105.502 18.4392 104.514 15.0969 102.538 12.0897C100.579 9.08246 98.0268 6.72823 94.8821 5.02701C91.7546 3.32578 88.8591 2.47516 86.1955 2.47516C82.4322 2.47516 79.0126 3.89285 75.9366 6.72823C72.8778 9.56361 71.3484 13.0864 71.3484 17.2965C71.3484 22.6751 73.2215 27.4007 76.9676 31.4734C80.7138 35.546 84.9153 37.5823 89.5722 37.5823ZM126.845 39.5929H126.355L112.848 6.16116C111.886 3.80693 111.095 2.4322 110.477 2.03697C109.858 1.62455 109.222 1.41834 108.569 1.41834V1.0317H117.333V1.41834C116.56 1.36679 116.173 1.66751 116.173 2.32051C116.173 2.57827 116.225 2.85321 116.328 3.14534L128.108 32.4013L139.81 3.17112C139.965 2.77589 140.042 2.45798 140.042 2.2174C140.042 1.63314 139.587 1.36679 138.676 1.41834V1.0317H144.372V1.41834C143.977 1.41834 143.556 1.47849 143.109 1.59877C142.68 1.70188 142.233 2.14007 141.769 2.91336C141.305 3.68664 141.064 4.09906 141.047 4.15062L126.845 39.5929Z" fill="#9C612A"/>
</svg>
